<svg width="1440" height="1024" viewBox="0 0 1440 1024" fill="none" xmlns="http://www.w3.org/2000/svg">
<g clip-path="url(#clip0_1_4)">
<rect width="1440" height="1024" fill="white"/>
<path d="M1367.29 843.123L1222.61 674.924L1440.14 620.25L1425.67 664.526L1284.65 695.311L1378.35 809.294L1367.29 843.123Z" fill="url(#paint0_linear_1_4)"/>
<path d="M762.191 187.2L765.857 288.727L669.482 254.98L687.9 241.514L749.002 265.194L748.119 197.488L762.191 187.2Z" fill="url(#paint1_linear_1_4)"/>
<path d="M1151.9 259.272L1053.28 283.679L1066.55 182.431L1083.5 197.696L1072.86 262.356L1138.94 247.608L1151.9 259.272Z" fill="url(#paint2_linear_1_4)"/>
</g>
<defs>
<linearGradient id="paint0_linear_1_4" x1="1277.15" y1="813.498" x2="1350.35" y2="590.742" gradientUnits="userSpaceOnUse">
<stop stop-color="#3C6B95" stop-opacity="0.73058"/>
<stop stop-color="#0175DB"/>
<stop offset="0.605" stop-color="#0175DB"/>
</linearGradient>
<linearGradient id="paint1_linear_1_4" x1="786.684" y1="221.397" x2="693.323" y2="288.265" gradientUnits="userSpaceOnUse">
<stop stop-color="#3C6B95" stop-opacity="0.73058"/>
<stop stop-color="#0175DB"/>
<stop offset="0.605" stop-color="#0175DB"/>
</linearGradient>
<linearGradient id="paint2_linear_1_4" x1="1123.45" y1="290.257" x2="1038.86" y2="212.591" gradientUnits="userSpaceOnUse">
<stop stop-color="#A3A3A3"/>
<stop offset="0.605" stop-color="#A3A3A3"/>
</linearGradient>
<clipPath id="clip0_1_4">
<rect width="1440" height="1024" fill="white"/>
</clipPath>
</defs>
</svg>
